<svg width="147" height="40" viewBox="0 0 147 40" fill="none" xmlns="http://www.w3.org/2000/svg">
<path d="M47.575 22.7998C47.182 22.7998 46.8782 22.6986 46.6638 22.4961C46.4613 22.2817 46.3601 21.9779 46.3601 21.5849V11.4188C46.3601 11.0258 46.4613 10.728 46.6638 10.5255C46.8782 10.3111 47.182 10.2039 47.575 10.2039H51.863C52.7444 10.2039 53.4948 10.3349 54.1142 10.597C54.7336 10.859 55.204 11.2342 55.5256 11.7225C55.8591 12.2109 56.0259 12.7945 56.0259 13.4735C56.0259 14.2358 55.8055 14.879 55.3648 15.4031C54.9241 15.9271 54.3226 16.2785 53.5603 16.4572V16.1892C54.4417 16.3202 55.1266 16.6537 55.615 17.1897C56.1033 17.7257 56.3475 18.4225 56.3475 19.2801C56.3475 20.3997 55.9663 21.2692 55.204 21.8886C54.4536 22.4961 53.4055 22.7998 52.0595 22.7998H47.575ZM48.5577 21.0668H51.7737C52.5836 21.0668 53.1792 20.9119 53.5603 20.6022C53.9415 20.2806 54.132 19.8042 54.132 19.1729C54.132 18.5297 53.9415 18.0533 53.5603 17.7436C53.1792 17.4339 52.5836 17.279 51.7737 17.279H48.5577V21.0668ZM48.5577 15.546H51.4699C52.2561 15.546 52.8397 15.3971 53.2209 15.0993C53.6139 14.7896 53.8104 14.337 53.8104 13.7415C53.8104 13.1459 53.6139 12.6993 53.2209 12.4015C52.8397 12.0918 52.2561 11.9369 51.4699 11.9369H48.5577V15.546ZM61.6088 22.9785C60.8822 22.9785 60.2807 22.8474 59.8043 22.5854C59.3278 22.3115 58.9705 21.9065 58.7323 21.3705C58.5059 20.8345 58.3928 20.1675 58.3928 19.3694V15.0457C58.3928 14.6646 58.4881 14.3847 58.6787 14.206C58.8692 14.0154 59.1432 13.9201 59.5005 13.9201C59.8579 13.9201 60.1318 14.0154 60.3224 14.206C60.5249 14.3847 60.6261 14.6646 60.6261 15.0457V19.4052C60.6261 20.0245 60.7512 20.4831 61.0013 20.7809C61.2514 21.0787 61.6505 21.2275 62.1984 21.2275C62.7939 21.2275 63.2823 21.0251 63.6634 20.6201C64.0446 20.2032 64.2352 19.6553 64.2352 18.9764V15.0457C64.2352 14.6646 64.3304 14.3847 64.521 14.206C64.7116 14.0154 64.9855 13.9201 65.3429 13.9201C65.7002 13.9201 65.9742 14.0154 66.1647 14.206C66.3672 14.3847 66.4685 14.6646 66.4685 15.0457V21.7993C66.4685 22.5616 66.1052 22.9427 65.3786 22.9427C65.0332 22.9427 64.7652 22.8474 64.5746 22.6569C64.384 22.4544 64.2888 22.1685 64.2888 21.7993V20.4414L64.5389 20.9774C64.2888 21.6206 63.9076 22.1149 63.3954 22.4603C62.8952 22.8058 62.2996 22.9785 61.6088 22.9785ZM69.9007 22.9427C69.5433 22.9427 69.2694 22.8474 69.0788 22.6569C68.8882 22.4544 68.7929 22.1685 68.7929 21.7993V11.1866C68.7929 10.8173 68.8882 10.5374 69.0788 10.3468C69.2694 10.1562 69.5433 10.061 69.9007 10.061C70.258 10.061 70.5319 10.1562 70.7225 10.3468C70.925 10.5374 71.0263 10.8173 71.0263 11.1866V17.7793H71.062L74.01 14.6705C74.2482 14.4323 74.4566 14.2477 74.6353 14.1167C74.814 13.9856 75.0581 13.9201 75.3678 13.9201C75.6775 13.9201 75.9098 14.0035 76.0646 14.1703C76.2314 14.3251 76.3148 14.5157 76.3148 14.742C76.3148 14.9683 76.2076 15.1946 75.9932 15.4209L72.8844 18.7084V17.7793L76.2969 21.4598C76.5113 21.6861 76.6066 21.9184 76.5827 22.1566C76.5708 22.3829 76.4755 22.5735 76.2969 22.7283C76.1182 22.8713 75.8919 22.9427 75.618 22.9427C75.2844 22.9427 75.0164 22.8772 74.814 22.7462C74.6234 22.6152 74.409 22.4187 74.1708 22.1566L71.062 18.9049H71.0263V21.7993C71.0263 22.5616 70.6511 22.9427 69.9007 22.9427ZM79.4795 22.9249C79.1222 22.9249 78.8482 22.8177 78.6576 22.6033C78.4671 22.3889 78.3718 22.0911 78.3718 21.7099V15.1529C78.3718 14.7599 78.4671 14.4621 78.6576 14.2596C78.8482 14.0452 79.1222 13.938 79.4795 13.938C79.8368 13.938 80.1108 14.0452 80.3014 14.2596C80.5038 14.4621 80.6051 14.7599 80.6051 15.1529V21.7099C80.6051 22.0911 80.5098 22.3889 80.3192 22.6033C80.1287 22.8177 79.8487 22.9249 79.4795 22.9249ZM79.4795 12.2764C79.0626 12.2764 78.7351 12.1752 78.4968 11.9727C78.2705 11.7583 78.1574 11.4665 78.1574 11.0972C78.1574 10.7161 78.2705 10.4242 78.4968 10.2218C78.7351 10.0193 79.0626 9.91803 79.4795 9.91803C79.9083 9.91803 80.2359 10.0193 80.4622 10.2218C80.6885 10.4242 80.8016 10.7161 80.8016 11.0972C80.8016 11.4665 80.6885 11.7583 80.4622 11.9727C80.2359 12.1752 79.9083 12.2764 79.4795 12.2764ZM83.4616 22.7998C83.2353 22.7998 83.0448 22.7462 82.8899 22.639C82.747 22.5199 82.6517 22.371 82.6041 22.1923C82.5564 22.0137 82.5564 21.8231 82.6041 21.6206C82.6636 21.4062 82.7768 21.2037 82.9435 21.0132L87.571 15.2065V15.7425H83.3544C83.0805 15.7425 82.8661 15.6711 82.7113 15.5281C82.5683 15.3733 82.4969 15.1648 82.4969 14.9028C82.4969 14.6288 82.5683 14.4204 82.7113 14.2775C82.8661 14.1345 83.0805 14.0631 83.3544 14.0631H88.6429C88.905 14.0631 89.1194 14.1226 89.2861 14.2417C89.4529 14.3489 89.5601 14.4919 89.6077 14.6705C89.6673 14.8492 89.6732 15.0398 89.6256 15.2423C89.578 15.4447 89.4708 15.6353 89.304 15.814L84.5872 21.7099V21.1203H89.0539C89.6256 21.1203 89.9115 21.4003 89.9115 21.9601C89.9115 22.2221 89.834 22.4306 89.6792 22.5854C89.5363 22.7283 89.3278 22.7998 89.0539 22.7998H83.4616ZM91.9238 22.7998C91.6975 22.7998 91.5069 22.7462 91.3521 22.639C91.2092 22.5199 91.1139 22.371 91.0662 22.1923C91.0186 22.0137 91.0186 21.8231 91.0662 21.6206C91.1258 21.4062 91.2389 21.2037 91.4057 21.0132L96.0331 15.2065V15.7425H91.8166C91.5427 15.7425 91.3283 15.6711 91.1734 15.5281C91.0305 15.3733 90.959 15.1648 90.959 14.9028C90.959 14.6288 91.0305 14.4204 91.1734 14.2775C91.3283 14.1345 91.5427 14.0631 91.8166 14.0631H97.1051C97.3672 14.0631 97.5816 14.1226 97.7483 14.2417C97.9151 14.3489 98.0223 14.4919 98.0699 14.6705C98.1295 14.8492 98.1354 15.0398 98.0878 15.2423C98.0401 15.4447 97.9329 15.6353 97.7662 15.814L93.0494 21.7099V21.1203H97.5161C98.0878 21.1203 98.3736 21.4003 98.3736 21.9601C98.3736 22.2221 98.2962 22.4306 98.1414 22.5854C97.9985 22.7283 97.79 22.7998 97.5161 22.7998H91.9238ZM109.256 22.9785C108.732 22.9785 108.208 22.9368 107.684 22.8534C107.16 22.7819 106.666 22.6688 106.201 22.5139C105.737 22.3472 105.32 22.1447 104.951 21.9065C104.736 21.7635 104.587 21.5908 104.504 21.3883C104.421 21.1859 104.391 20.9893 104.415 20.7988C104.45 20.5963 104.528 20.4236 104.647 20.2806C104.778 20.1258 104.939 20.0305 105.129 19.9948C105.32 19.959 105.528 20.0126 105.755 20.1556C106.279 20.4652 106.833 20.6916 107.416 20.8345C108 20.9774 108.613 21.0489 109.256 21.0489C110.197 21.0489 110.882 20.894 111.311 20.5844C111.74 20.2628 111.954 19.8518 111.954 19.3516C111.954 18.9347 111.799 18.6071 111.49 18.3689C111.192 18.1307 110.674 17.9341 109.935 17.7793L107.97 17.3684C106.839 17.1302 105.993 16.7311 105.433 16.1713C104.885 15.5996 104.611 14.8492 104.611 13.9201C104.611 13.3365 104.73 12.8065 104.968 12.33C105.207 11.8536 105.54 11.4426 105.969 11.0972C106.41 10.7518 106.928 10.4898 107.523 10.3111C108.131 10.1205 108.798 10.0252 109.524 10.0252C110.239 10.0252 110.918 10.1146 111.561 10.2932C112.204 10.4719 112.782 10.7339 113.294 11.0794C113.485 11.2104 113.61 11.3712 113.669 11.5618C113.741 11.7523 113.759 11.9429 113.723 12.1335C113.687 12.3121 113.604 12.467 113.473 12.598C113.342 12.729 113.175 12.8065 112.973 12.8303C112.782 12.8541 112.562 12.7945 112.312 12.6516C111.871 12.4015 111.424 12.2228 110.972 12.1156C110.519 12.0084 110.031 11.9548 109.507 11.9548C108.959 11.9548 108.488 12.0322 108.095 12.1871C107.702 12.3419 107.398 12.5623 107.184 12.8481C106.981 13.1221 106.88 13.4496 106.88 13.8308C106.88 14.2596 107.023 14.605 107.309 14.8671C107.595 15.1172 108.083 15.3137 108.774 15.4567L110.722 15.8676C111.901 16.1177 112.776 16.5108 113.348 17.0468C113.932 17.5828 114.223 18.2974 114.223 19.1908C114.223 19.7625 114.104 20.2806 113.866 20.7452C113.64 21.2097 113.306 21.6087 112.866 21.9422C112.437 22.2757 111.919 22.5318 111.311 22.7105C110.704 22.8891 110.019 22.9785 109.256 22.9785ZM117.079 22.9427C116.722 22.9427 116.448 22.8474 116.258 22.6569C116.067 22.4544 115.972 22.1685 115.972 21.7993V11.1866C115.972 10.8173 116.067 10.5374 116.258 10.3468C116.448 10.1562 116.722 10.061 117.079 10.061C117.437 10.061 117.711 10.1562 117.901 10.3468C118.104 10.5374 118.205 10.8173 118.205 11.1866V15.814H117.955C118.217 15.1827 118.622 14.7063 119.17 14.3847C119.73 14.0512 120.361 13.8844 121.064 13.8844C121.766 13.8844 122.344 14.0154 122.797 14.2775C123.249 14.5395 123.589 14.9385 123.815 15.4745C124.041 15.9986 124.155 16.6656 124.155 17.4756V21.7993C124.155 22.1685 124.059 22.4544 123.869 22.6569C123.678 22.8474 123.404 22.9427 123.047 22.9427C122.69 22.9427 122.41 22.8474 122.207 22.6569C122.017 22.4544 121.921 22.1685 121.921 21.7993V17.5828C121.921 16.9038 121.79 16.4095 121.528 16.0999C121.278 15.7902 120.885 15.6353 120.349 15.6353C119.694 15.6353 119.17 15.8438 118.777 16.2607C118.396 16.6656 118.205 17.2076 118.205 17.8865V21.7993C118.205 22.5616 117.83 22.9427 117.079 22.9427ZM130.407 22.9785C129.502 22.9785 128.716 22.7938 128.049 22.4246C127.382 22.0554 126.864 21.5313 126.494 20.8524C126.125 20.1615 125.941 19.3516 125.941 18.4225C125.941 17.7198 126.042 17.0944 126.244 16.5465C126.459 15.9867 126.762 15.5103 127.156 15.1172C127.549 14.7122 128.019 14.4085 128.567 14.206C129.115 13.9916 129.728 13.8844 130.407 13.8844C131.312 13.8844 132.099 14.069 132.766 14.4383C133.433 14.8075 133.951 15.3316 134.32 16.0105C134.689 16.6894 134.874 17.4934 134.874 18.4225C134.874 19.1253 134.767 19.7565 134.552 20.3164C134.35 20.8762 134.052 21.3586 133.659 21.7635C133.266 22.1566 132.795 22.4603 132.247 22.6747C131.7 22.8772 131.086 22.9785 130.407 22.9785ZM130.407 21.2811C130.848 21.2811 131.235 21.1739 131.569 20.9596C131.902 20.7452 132.158 20.4295 132.337 20.0126C132.527 19.5838 132.623 19.0538 132.623 18.4225C132.623 17.4696 132.42 16.7609 132.015 16.2964C131.61 15.8199 131.074 15.5817 130.407 15.5817C129.967 15.5817 129.579 15.6889 129.246 15.9033C128.912 16.1058 128.65 16.4214 128.46 16.8502C128.281 17.2671 128.192 17.7912 128.192 18.4225C128.192 19.3635 128.394 20.0781 128.799 20.5665C129.204 21.0429 129.74 21.2811 130.407 21.2811ZM137.825 26.1587C137.468 26.1587 137.194 26.0634 137.003 25.8728C136.812 25.6823 136.717 25.4024 136.717 25.0331V15.0457C136.717 14.6765 136.812 14.3966 137.003 14.206C137.194 14.0154 137.462 13.9201 137.807 13.9201C138.164 13.9201 138.438 14.0154 138.629 14.206C138.819 14.3966 138.915 14.6765 138.915 15.0457V16.4393L138.718 15.9033C138.897 15.2959 139.26 14.8075 139.808 14.4383C140.368 14.069 141.017 13.8844 141.756 13.8844C142.518 13.8844 143.185 14.069 143.757 14.4383C144.34 14.8075 144.793 15.3316 145.114 16.0105C145.436 16.6775 145.597 17.4815 145.597 18.4225C145.597 19.3516 145.436 20.1615 145.114 20.8524C144.793 21.5313 144.346 22.0554 143.774 22.4246C143.203 22.7938 142.53 22.9785 141.756 22.9785C141.029 22.9785 140.392 22.7998 139.844 22.4425C139.296 22.0732 138.927 21.5968 138.736 21.0132H138.951V25.0331C138.951 25.4024 138.849 25.6823 138.647 25.8728C138.456 26.0634 138.182 26.1587 137.825 26.1587ZM141.13 21.2811C141.571 21.2811 141.958 21.1739 142.292 20.9596C142.625 20.7452 142.881 20.4295 143.06 20.0126C143.25 19.5838 143.346 19.0538 143.346 18.4225C143.346 17.4696 143.143 16.7609 142.738 16.2964C142.333 15.8199 141.797 15.5817 141.13 15.5817C140.69 15.5817 140.302 15.6889 139.969 15.9033C139.635 16.1058 139.373 16.4214 139.183 16.8502C139.004 17.2671 138.915 17.7912 138.915 18.4225C138.915 19.3635 139.117 20.0781 139.522 20.5665C139.927 21.0429 140.463 21.2811 141.13 21.2811Z" fill="#171A1C"/>
<mask id="mask0_3625_19618" style="mask-type:alpha" maskUnits="userSpaceOnUse" x="0" y="0" width="41" height="40">
<rect x="0.806641" y="0.428711" width="39.2062" height="39.2062" fill="#D9D9D9"/>
</mask>
<g mask="url(#mask0_3625_19618)">
<path d="M17.8916 14.1924C17.8916 12.9259 18.3938 11.7113 19.2877 10.8157C20.1816 9.92012 21.394 9.41699 22.6581 9.41699H32.1912C32.5073 9.41699 32.8104 9.54277 33.0338 9.76667C33.2573 9.99056 33.3829 10.2942 33.3829 10.6109V29.7127C33.3829 30.0293 33.2573 30.333 33.0338 30.5569C32.8104 30.7808 32.5073 30.9065 32.1912 30.9065H22.6581C21.394 30.9065 20.1816 31.4097 19.2877 32.3052C18.3938 33.2008 17.8916 34.4155 17.8916 35.682" fill="url(#paint0_linear_3625_19618)"/>
<path d="M17.8916 14.1924C17.8916 12.9259 18.3938 11.7113 19.2877 10.8157C20.1816 9.92012 21.394 9.41699 22.6581 9.41699H32.1912C32.5073 9.41699 32.8104 9.54277 33.0338 9.76667C33.2573 9.99056 33.3829 10.2942 33.3829 10.6109V29.7127C33.3829 30.0293 33.2573 30.333 33.0338 30.5569C32.8104 30.7808 32.5073 30.9065 32.1912 30.9065H22.6581C21.394 30.9065 20.1816 31.4097 19.2877 32.3052C18.3938 33.2008 17.8916 34.4155 17.8916 35.682" stroke="url(#paint1_linear_3625_19618)" stroke-width="0.255" stroke-linecap="round" stroke-linejoin="round"/>
<path d="M2.40039 29.7127C2.40039 30.0293 2.52594 30.333 2.74941 30.5569C2.97289 30.7808 3.27598 30.9065 3.59203 30.9065H13.1251C14.3893 30.9065 15.6017 31.4097 16.4956 32.3052C17.3895 33.2008 17.8916 34.4155 17.8916 35.682V14.1924C17.8916 12.9259 17.3895 11.7113 16.4956 10.8157C15.6017 9.92012 14.3893 9.41699 13.1251 9.41699H3.59203C3.27598 9.41699 2.97289 9.54277 2.74941 9.76667C2.52594 9.99056 2.40039 10.2942 2.40039 10.6109V29.7127Z" fill="url(#paint2_linear_3625_19618)" stroke="url(#paint3_linear_3625_19618)" stroke-width="0.255" stroke-linecap="round" stroke-linejoin="round"/>
<path d="M22.9912 9.15631C22.9912 7.88978 23.4934 6.67513 24.3873 5.77956C25.2812 4.88399 26.4936 4.38086 27.7577 4.38086H37.2908C37.6069 4.38086 37.91 4.50664 38.1334 4.73053C38.3569 4.95443 38.4825 5.25809 38.4825 5.57472V24.6765C38.4825 24.9932 38.3569 25.2968 38.1334 25.5207C37.91 25.7446 37.6069 25.8704 37.2908 25.8704H27.7577C26.4936 25.8704 25.2812 26.3735 24.3873 27.2691C23.4934 28.1647 22.9912 29.3793 22.9912 30.6459" fill="url(#paint4_linear_3625_19618)"/>
<path d="M22.9912 9.15631C22.9912 7.88978 23.4934 6.67513 24.3873 5.77956C25.2812 4.88399 26.4936 4.38086 27.7577 4.38086H37.2908C37.6069 4.38086 37.91 4.50664 38.1334 4.73053C38.3569 4.95443 38.4825 5.25809 38.4825 5.57472V24.6765C38.4825 24.9932 38.3569 25.2968 38.1334 25.5207C37.91 25.7446 37.6069 25.8704 37.2908 25.8704H27.7577C26.4936 25.8704 25.2812 26.3735 24.3873 27.2691C23.4934 28.1647 22.9912 29.3793 22.9912 30.6459V9.15631Z" stroke="url(#paint5_linear_3625_19618)" stroke-width="0.255" stroke-linecap="round" stroke-linejoin="round"/>
<path d="M7.5 24.6765C7.5 24.9932 7.62555 25.2968 7.84902 25.5207C8.0725 25.7446 8.37559 25.8704 8.69163 25.8704H18.2247C19.4889 25.8704 20.7013 26.3735 21.5952 27.2691C22.4891 28.1647 22.9913 29.3793 22.9913 30.6459V9.15631C22.9913 7.88978 22.4891 6.67513 21.5952 5.77956C20.7013 4.88399 19.4889 4.38086 18.2247 4.38086H8.69163C8.37559 4.38086 8.0725 4.50664 7.84902 4.73053C7.62555 4.95443 7.5 5.25809 7.5 5.57472V24.6765Z" fill="url(#paint6_linear_3625_19618)" stroke="url(#paint7_linear_3625_19618)" stroke-width="0.255" stroke-linecap="round" stroke-linejoin="round"/>
</g>
<defs>
<linearGradient id="paint0_linear_3625_19618" x1="25.6372" y1="9.41699" x2="25.6372" y2="35.682" gradientUnits="userSpaceOnUse">
<stop stop-color="#7E30E1"/>
<stop offset="1" stop-color="#8D48E4"/>
</linearGradient>
<linearGradient id="paint1_linear_3625_19618" x1="25.6372" y1="9.41699" x2="25.6372" y2="35.682" gradientUnits="userSpaceOnUse">
<stop stop-color="#171A1C"/>
<stop offset="1" stop-color="#0D0D0D"/>
</linearGradient>
<linearGradient id="paint2_linear_3625_19618" x1="10.146" y1="9.41699" x2="10.146" y2="35.682" gradientUnits="userSpaceOnUse">
<stop stop-color="#7E30E1"/>
<stop offset="1" stop-color="#8D48E4"/>
</linearGradient>
<linearGradient id="paint3_linear_3625_19618" x1="10.146" y1="9.41699" x2="10.146" y2="35.682" gradientUnits="userSpaceOnUse">
<stop stop-color="#171A1C"/>
<stop offset="1" stop-color="#0D0D0D"/>
</linearGradient>
<linearGradient id="paint4_linear_3625_19618" x1="30.7368" y1="4.38086" x2="30.7368" y2="30.6459" gradientUnits="userSpaceOnUse">
<stop stop-color="#39A7FF"/>
<stop offset="1" stop-color="#66BBFF"/>
</linearGradient>
<linearGradient id="paint5_linear_3625_19618" x1="30.7368" y1="4.38086" x2="30.7368" y2="30.6459" gradientUnits="userSpaceOnUse">
<stop stop-color="#171A1C"/>
<stop offset="1" stop-color="#0D0D0D"/>
</linearGradient>
<linearGradient id="paint6_linear_3625_19618" x1="15.2456" y1="4.38086" x2="15.2456" y2="30.6459" gradientUnits="userSpaceOnUse">
<stop stop-color="#39A7FF"/>
<stop offset="1" stop-color="#66BBFF"/>
</linearGradient>
<linearGradient id="paint7_linear_3625_19618" x1="15.2456" y1="4.38086" x2="15.2456" y2="30.6459" gradientUnits="userSpaceOnUse">
<stop stop-color="#171A1C"/>
<stop offset="1" stop-color="#0D0D0D"/>
</linearGradient>
</defs>
</svg>
