<svg width="73" height="72" viewBox="0 0 73 72" fill="none" xmlns="http://www.w3.org/2000/svg">
<g filter="url(#filter0_d_3673_9465)">
<rect x="12.25" y="10" width="48" height="48" rx="8" fill="#CCE8FF"/>
<path d="M26.3811 24.0246C26.0705 24.0009 25.6649 24 25.0308 24H23.5C22.8096 24 22.25 23.4404 22.25 22.75C22.25 22.0596 22.8096 21.5 23.5 21.5H25.0748C25.6523 21.5 26.1544 21.5 26.5719 21.5319C27.0157 21.5659 27.4561 21.6408 27.8905 21.8393C28.5448 22.1383 29.0992 22.6192 29.4877 23.2246C29.7457 23.6266 29.8821 24.052 29.9785 24.4864C30.0692 24.8952 30.1402 25.3922 30.2218 25.9638L30.3088 26.5729L44.263 27.54C44.7672 27.575 45.2195 27.6063 45.5924 27.6634C45.9907 27.7245 46.412 27.8294 46.8116 28.076C47.3883 28.4318 47.8337 28.9655 48.0807 29.5964C48.2519 30.0338 48.2797 30.4675 48.2685 30.8702C48.258 31.2472 48.208 31.6976 48.1522 32.1998L48.0277 33.3198C47.8925 34.5366 47.7832 35.5213 47.6315 36.3174C47.4749 37.1393 47.2575 37.8552 46.8573 38.51C46.2182 39.5555 45.2857 40.3901 44.1758 40.91C43.4809 41.2354 42.7452 41.3724 41.9111 41.4372C41.1035 41.5 40.1133 41.5 38.8897 41.5H34.4251C33.8477 41.5 33.3456 41.5 32.9281 41.4681C32.4844 41.4341 32.044 41.3593 31.6096 41.1608C30.9554 40.8618 30.4008 40.3808 30.0123 39.7756C29.7544 39.3737 29.6179 38.9481 29.5215 38.5137C29.4308 38.1049 29.3598 37.6079 29.2782 37.0363L27.9806 27.9528C27.9779 27.9364 27.9755 27.9198 27.9735 27.9032L27.7532 26.3611C27.6635 25.7334 27.6053 25.332 27.5378 25.0278C27.4738 24.739 27.4197 24.6309 27.3838 24.5749C27.2542 24.3731 27.0694 24.2128 26.8513 24.1131C26.7908 24.0854 26.6762 24.0472 26.3811 24.0246Z" fill="#0590FF"/>
<path d="M29.75 45.25C29.75 43.8693 30.8693 42.75 32.25 42.75C33.6307 42.75 34.75 43.8693 34.75 45.25C34.75 46.6307 33.6307 47.75 32.25 47.75C30.8693 47.75 29.75 46.6307 29.75 45.25Z" fill="#0590FF"/>
<path d="M41 45.25C41 43.8693 42.1193 42.75 43.5 42.75C44.8807 42.75 46 43.8693 46 45.25C46 46.6307 44.8807 47.75 43.5 47.75C42.1193 47.75 41 46.6307 41 45.25Z" fill="#0590FF"/>
</g>
<defs>
<filter id="filter0_d_3673_9465" x="0.25" y="0" width="72" height="72" filterUnits="userSpaceOnUse" color-interpolation-filters="sRGB">
<feFlood flood-opacity="0" result="BackgroundImageFix"/>
<feColorMatrix in="SourceAlpha" type="matrix" values="0 0 0 0 0 0 0 0 0 0 0 0 0 0 0 0 0 0 127 0" result="hardAlpha"/>
<feOffset dy="2"/>
<feGaussianBlur stdDeviation="6"/>
<feComposite in2="hardAlpha" operator="out"/>
<feColorMatrix type="matrix" values="0 0 0 0 0 0 0 0 0 0.344444 0 0 0 0 0.62 0 0 0 0.1 0"/>
<feBlend mode="normal" in2="BackgroundImageFix" result="effect1_dropShadow_3673_9465"/>
<feBlend mode="normal" in="SourceGraphic" in2="effect1_dropShadow_3673_9465" result="shape"/>
</filter>
</defs>
</svg>
