<svg width="73" height="72" viewBox="0 0 73 72" fill="none" xmlns="http://www.w3.org/2000/svg">
<g filter="url(#filter0_d_3673_9472)">
<rect x="12.75" y="10" width="48" height="48" rx="8" fill="#00AF11" fill-opacity="0.2" shape-rendering="crispEdges"/>
<rect x="21.25" y="19" width="31" height="31" rx="15.5" fill="#00AF11"/>
<path d="M40.6075 42.4521C40.3153 42.4521 40.0649 42.4031 39.8562 42.3049C39.6614 42.2207 39.4944 42.1015 39.3553 41.9472C39.2301 41.793 39.1118 41.6317 39.0005 41.4634L36.4336 37.5714C36.2527 37.2768 36.0579 37.0384 35.8492 36.8561C35.6544 36.6737 35.4318 36.5475 35.1814 36.4774C34.9449 36.3932 34.6597 36.3512 34.3257 36.3512H32.2805C31.9327 36.3512 31.6614 36.26 31.4666 36.0777C31.2857 35.8813 31.1953 35.6148 31.1953 35.2782C31.1953 34.9416 31.2857 34.6822 31.4666 34.4998C31.6614 34.3175 31.9327 34.2263 32.2805 34.2263H35.4527C36.4405 34.2263 37.1849 34.044 37.6857 33.6794C38.1866 33.3007 38.4857 32.7256 38.5831 31.9543L38.9379 32.5854H32.1971C31.8771 32.5854 31.6266 32.5082 31.4457 32.354C31.2788 32.1857 31.1953 31.9543 31.1953 31.6597C31.1953 31.3652 31.2788 31.1408 31.4457 30.9865C31.6266 30.8182 31.8771 30.7341 32.1971 30.7341H38.9379L38.5414 31.3231C38.4301 30.6499 38.131 30.145 37.644 29.8084C37.1571 29.4718 36.4614 29.3035 35.5571 29.3035H32.1971C31.8771 29.3035 31.6266 29.2263 31.4457 29.0721C31.2788 28.9038 31.1953 28.6723 31.1953 28.3778C31.1953 28.0833 31.2788 27.8589 31.4457 27.7046C31.6266 27.5363 31.8771 27.4521 32.1971 27.4521H42.1936C42.5136 27.4521 42.7571 27.5363 42.924 27.7046C43.1049 27.8589 43.1953 28.0833 43.1953 28.3778C43.1953 28.6723 43.1049 28.9038 42.924 29.0721C42.7571 29.2263 42.5136 29.3035 42.1936 29.3035H39.2927L39.5431 28.7144C40.0162 28.9669 40.3849 29.3035 40.6492 29.7242C40.9136 30.131 41.0736 30.6078 41.1292 31.1548L40.6492 30.7341H42.1936C42.5136 30.7341 42.7571 30.8182 42.924 30.9865C43.1049 31.1408 43.1953 31.3652 43.1953 31.6597C43.1953 31.9543 43.1049 32.1857 42.924 32.354C42.7571 32.5082 42.5136 32.5854 42.1936 32.5854H40.7118L41.171 31.828C41.1849 32.7256 40.9901 33.504 40.5866 34.1632C40.1831 34.8224 39.6057 35.3343 38.8544 35.699C38.1171 36.0496 37.2266 36.2249 36.1831 36.2249V36.0146H36.7675C37.3936 36.0146 37.9292 36.1408 38.3744 36.3932C38.8336 36.6317 39.2649 37.0594 39.6684 37.6766L41.6092 40.5798C41.8179 40.8743 41.9084 41.1688 41.8805 41.4634C41.8527 41.7439 41.7275 41.9823 41.5049 42.1787C41.2962 42.361 40.9971 42.4521 40.6075 42.4521Z" fill="white"/>
</g>
<defs>
<filter id="filter0_d_3673_9472" x="0.75" y="0" width="72" height="72" filterUnits="userSpaceOnUse" color-interpolation-filters="sRGB">
<feFlood flood-opacity="0" result="BackgroundImageFix"/>
<feColorMatrix in="SourceAlpha" type="matrix" values="0 0 0 0 0 0 0 0 0 0 0 0 0 0 0 0 0 0 127 0" result="hardAlpha"/>
<feOffset dy="2"/>
<feGaussianBlur stdDeviation="6"/>
<feComposite in2="hardAlpha" operator="out"/>
<feColorMatrix type="matrix" values="0 0 0 0 0 0 0 0 0 0.344444 0 0 0 0 0.62 0 0 0 0.1 0"/>
<feBlend mode="normal" in2="BackgroundImageFix" result="effect1_dropShadow_3673_9472"/>
<feBlend mode="normal" in="SourceGraphic" in2="effect1_dropShadow_3673_9472" result="shape"/>
</filter>
</defs>
</svg>
