<svg width="73" height="72" viewBox="0 0 73 72" fill="none" xmlns="http://www.w3.org/2000/svg">
<g filter="url(#filter0_d_3736_9608)">
<rect x="12.25" y="10" width="48" height="48" rx="8" fill="#FF9B05" fill-opacity="0.2" shape-rendering="crispEdges"/>
<path opacity="0.3" d="M44.8667 43.8L42 40.9333V36.6667H43.3333V40.3867L45.8 42.8533L44.8667 43.8ZM42.6667 31.3333C43.12 31.3333 43.56 31.3733 44 31.44V24.6667H41.3333V28.6667H30.6667V24.6667H28V44.6667H34.24C33.5635 43.2447 33.2581 41.6746 33.3522 40.1027C33.4463 38.5308 33.9368 37.0084 34.7781 35.6772C35.6194 34.3461 36.784 33.2497 38.1634 32.4901C39.5427 31.7305 41.092 31.3326 42.6667 31.3333ZM36 24.6667C35.2667 24.6667 34.6667 24.0667 34.6667 23.3333C34.6667 22.6 35.2667 22 36 22C36.7333 22 37.3333 22.6 37.3333 23.3333C37.3333 24.0667 36.7333 24.6667 36 24.6667Z" fill="#FF9B05"/>
<path d="M42.6663 34C38.9863 34 35.9997 36.9867 35.9997 40.6667C35.9997 44.3467 38.9863 47.3334 42.6663 47.3334C46.3463 47.3334 49.333 44.3467 49.333 40.6667C49.333 36.9867 46.3463 34 42.6663 34ZM44.8663 43.8L41.9997 40.9334V36.6667H43.333V40.3867L45.7997 42.8534L44.8663 43.8ZM43.9997 22H39.7597C39.1997 20.4534 37.733 19.3334 35.9997 19.3334C34.2663 19.3334 32.7997 20.4534 32.2397 22H27.9997C26.533 22 25.333 23.2 25.333 24.6667V44.6667C25.333 46.1334 26.533 47.3334 27.9997 47.3334H36.1463C35.3575 46.5677 34.7158 45.6639 34.253 44.6667H27.9997V24.6667H30.6663V28.6667H41.333V24.6667H43.9997V31.44C44.9463 31.5734 45.8397 31.8534 46.6663 32.24V24.6667C46.6663 23.2 45.4663 22 43.9997 22ZM35.9997 24.6667C35.2663 24.6667 34.6663 24.0667 34.6663 23.3334C34.6663 22.6 35.2663 22 35.9997 22C36.733 22 37.333 22.6 37.333 23.3334C37.333 24.0667 36.733 24.6667 35.9997 24.6667Z" fill="#FF9B05"/>
</g>
<defs>
<filter id="filter0_d_3736_9608" x="0.25" y="0" width="72" height="72" filterUnits="userSpaceOnUse" color-interpolation-filters="sRGB">
<feFlood flood-opacity="0" result="BackgroundImageFix"/>
<feColorMatrix in="SourceAlpha" type="matrix" values="0 0 0 0 0 0 0 0 0 0 0 0 0 0 0 0 0 0 127 0" result="hardAlpha"/>
<feOffset dy="2"/>
<feGaussianBlur stdDeviation="6"/>
<feComposite in2="hardAlpha" operator="out"/>
<feColorMatrix type="matrix" values="0 0 0 0 0 0 0 0 0 0.344444 0 0 0 0 0.62 0 0 0 0.1 0"/>
<feBlend mode="normal" in2="BackgroundImageFix" result="effect1_dropShadow_3736_9608"/>
<feBlend mode="normal" in="SourceGraphic" in2="effect1_dropShadow_3736_9608" result="shape"/>
</filter>
</defs>
</svg>
