<svg width="25" height="24" viewBox="0 0 25 24" fill="none" xmlns="http://www.w3.org/2000/svg">
<path d="M4.55491 4.01971C4.30638 4.00068 3.98194 4 3.47465 4H2.25C1.69772 4 1.25 3.55229 1.25 3C1.25 2.44772 1.69772 2 2.25 2H3.50988C3.97182 1.99999 4.37353 1.99997 4.70756 2.02554C5.06253 2.05271 5.41486 2.11262 5.76239 2.27144C6.28581 2.51065 6.72937 2.89535 7.04019 3.37966C7.24657 3.70124 7.3557 4.04158 7.4328 4.38914C7.50535 4.71617 7.56214 5.11379 7.62745 5.57107L7.69705 6.05829L18.8604 6.83203C19.2638 6.85996 19.6256 6.88502 19.924 6.93075C20.2426 6.97958 20.5796 7.06351 20.8993 7.2608C21.3606 7.54548 21.7169 7.97239 21.9146 8.47713C22.0515 8.82707 22.0738 9.174 22.0648 9.49618C22.0564 9.79779 22.0164 10.1581 21.9717 10.5598L21.8721 11.4558C21.764 12.4293 21.6765 13.217 21.5552 13.8539C21.4299 14.5114 21.256 15.0842 20.9358 15.608C20.4245 16.4444 19.6785 17.1121 18.7907 17.528C18.2347 17.7883 17.6462 17.8979 16.9789 17.9498C16.3328 18 15.5406 18 14.5618 18H10.9901C10.5282 18 10.1265 18 9.79247 17.9745C9.43752 17.9473 9.08522 17.8874 8.73772 17.7287C8.21434 17.4894 7.77066 17.1047 7.45987 16.6205C7.25349 16.2989 7.14429 15.9585 7.0672 15.6109C6.99465 15.2839 6.93787 14.8863 6.87256 14.429L5.83445 7.16225C5.8323 7.14909 5.83041 7.13586 5.82878 7.12255L5.65254 5.88888C5.5808 5.38669 5.53425 5.06561 5.48026 4.82226C5.429 4.59116 5.38577 4.50473 5.35701 4.4599C5.2534 4.29846 5.10553 4.17021 4.93107 4.09048C4.88264 4.06835 4.79097 4.03777 4.55491 4.01971Z" fill="#A6A6A6"/>
<path d="M7.25 21C7.25 19.8954 8.14543 19 9.25 19C10.3546 19 11.25 19.8954 11.25 21C11.25 22.1046 10.3546 23 9.25 23C8.14543 23 7.25 22.1046 7.25 21Z" fill="#A6A6A6"/>
<path d="M16.25 21C16.25 19.8954 17.1454 19 18.25 19C19.3546 19 20.25 19.8954 20.25 21C20.25 22.1046 19.3546 23 18.25 23C17.1454 23 16.25 22.1046 16.25 21Z" fill="#A6A6A6"/>
</svg>
