<svg width="25" height="24" viewBox="0 0 25 24" fill="none" xmlns="http://www.w3.org/2000/svg">
<g id="grid/grid-dashboard-circle">
<g id="vector">
<path d="M7.25 2C4.76472 2 2.75 4.01472 2.75 6.5C2.75 8.98528 4.76472 11 7.25 11C9.73528 11 11.75 8.98528 11.75 6.5C11.75 4.01472 9.73528 2 7.25 2Z" fill="#A6A6A6"/>
<path d="M18.25 2C15.7647 2 13.75 4.01472 13.75 6.5C13.75 8.98528 15.7647 11 18.25 11C20.7353 11 22.75 8.98528 22.75 6.5C22.75 4.01472 20.7353 2 18.25 2Z" fill="#A6A6A6"/>
<path d="M7.25 13C4.76472 13 2.75 15.0147 2.75 17.5C2.75 19.9853 4.76472 22 7.25 22C9.73528 22 11.75 19.9853 11.75 17.5C11.75 15.0147 9.73528 13 7.25 13Z" fill="#A6A6A6"/>
<path d="M18.25 13C15.7647 13 13.75 15.0147 13.75 17.5C13.75 19.9853 15.7647 22 18.25 22C20.7353 22 22.75 19.9853 22.75 17.5C22.75 15.0147 20.7353 13 18.25 13Z" fill="#A6A6A6"/>
</g>
</g>
</svg>
