<svg width="25" height="24" viewBox="0 0 25 24" fill="none" xmlns="http://www.w3.org/2000/svg">
<path fill-rule="evenodd" clip-rule="evenodd" d="M4.32214 9.52563C4.67662 5.2719 8.23252 2 12.501 2C16.7695 2 20.3254 5.2719 20.6798 9.52563L21.035 13.788C21.0662 14.1618 21.1849 14.5228 21.3548 15.0345C21.8734 16.5965 20.821 18.2392 19.1853 18.421C18.2282 18.5274 17.2692 18.6109 16.3091 18.6714C16.0581 20.5506 14.4488 22 12.501 22C10.5532 22 8.94401 20.5507 8.69293 18.6716C7.73255 18.6111 6.77327 18.5276 5.81593 18.4213C4.17898 18.2394 3.12593 16.5944 3.6469 15.0315C3.81725 14.5205 3.936 14.1593 3.96714 13.7856L4.32214 9.52563ZM10.7618 18.7665C11.0131 19.4848 11.6969 20 12.501 20C13.3051 20 13.9889 19.4848 14.2402 18.7664C14.1422 18.7692 14.0442 18.7718 13.9462 18.7742C12.8849 18.7995 11.823 18.797 10.7618 18.7665Z" fill="#A6A6A6"/>
</svg>
