<svg width="24" height="24" viewBox="0 0 24 24" fill="none" xmlns="http://www.w3.org/2000/svg">
<g id="Frame 2147223444">
<rect x="0.805664" y="0.805542" width="22.3889" height="22.3889" rx="11.1944" fill="#A6A6A6"/>
<path id="&#226;&#130;&#185;" d="M14.786 17.7432C14.5749 17.7432 14.3941 17.7077 14.2434 17.6368C14.1027 17.576 13.9821 17.49 13.8816 17.3785C13.7912 17.2671 13.7058 17.1506 13.6254 17.0291L11.7715 14.2182C11.6408 14.0055 11.5002 13.8333 11.3494 13.7016C11.2088 13.5699 11.048 13.4787 10.8671 13.4281C10.6963 13.3673 10.4903 13.3369 10.2492 13.3369H8.77205C8.52084 13.3369 8.3249 13.2711 8.18422 13.1394C8.0536 12.9976 7.98828 12.8051 7.98828 12.562C7.98828 12.3189 8.0536 12.1315 8.18422 11.9998C8.3249 11.8682 8.52084 11.8023 8.77205 11.8023H11.0631C11.7765 11.8023 12.3141 11.6706 12.6758 11.4073C13.0376 11.1338 13.2536 10.7185 13.3239 10.1614L13.5802 10.6172H8.71176C8.48065 10.6172 8.29978 10.5615 8.16915 10.4501C8.04857 10.3285 7.98828 10.1614 7.98828 9.94865C7.98828 9.73594 8.04857 9.57387 8.16915 9.46245C8.29978 9.34089 8.48065 9.28012 8.71176 9.28012H13.5802L13.2938 9.70555C13.2134 9.21934 12.9974 8.85469 12.6457 8.61158C12.294 8.36848 11.7916 8.24692 11.1384 8.24692H8.71176C8.48065 8.24692 8.29978 8.19121 8.16915 8.07979C8.04857 7.95824 7.98828 7.7911 7.98828 7.57839C7.98828 7.36567 8.04857 7.2036 8.16915 7.09218C8.29978 6.97063 8.48065 6.90985 8.71176 6.90985H15.9315C16.1626 6.90985 16.3384 6.97063 16.459 7.09218C16.5896 7.2036 16.6549 7.36567 16.6549 7.57839C16.6549 7.7911 16.5896 7.95824 16.459 8.07979C16.3384 8.19121 16.1626 8.24692 15.9315 8.24692H13.8364L14.0173 7.82149C14.3589 8.00382 14.6252 8.24692 14.8161 8.55081C15.007 8.84456 15.1226 9.18895 15.1628 9.584L14.8161 9.28012H15.9315C16.1626 9.28012 16.3384 9.34089 16.459 9.46245C16.5896 9.57387 16.6549 9.73594 16.6549 9.94865C16.6549 10.1614 16.5896 10.3285 16.459 10.4501C16.3384 10.5615 16.1626 10.6172 15.9315 10.6172H14.8613L15.1929 10.0702C15.203 10.7185 15.0623 11.2807 14.7709 11.7567C14.4795 12.2328 14.0625 12.6025 13.5199 12.8659C12.9873 13.1191 12.3442 13.2458 11.5906 13.2458V13.0938H12.0126C12.4648 13.0938 12.8517 13.185 13.1732 13.3673C13.5048 13.5395 13.8163 13.8485 14.1077 14.2941L15.5094 16.3909C15.6602 16.6036 15.7255 16.8163 15.7054 17.0291C15.6853 17.2317 15.5949 17.4039 15.4341 17.5457C15.2834 17.6773 15.0673 17.7432 14.786 17.7432Z" fill="white"/>
</g>
</svg>
